# AST/ASF file generated using VICON BodyLanguage
# -----------------------------------------------
:version 1.10
:name VICON
:units
  mass 1.0
  length 0.45
  angle deg
:documentation
   .ast/.asf automatically generated from VICON data using
   VICON BodyBuilder and BodyLanguage model FoxedUp or BRILLIANT.MOD
:root
   order TX TY TZ RX RY RZ
   axis XYZ
   position 0 0 0  
   orientation 0 0 0 
:bonedata
  begin
     id 1 
     name lhipjoint
     direction 0.521452 -0.77106 0.36545 
     length 2.0933 
     axis 0 0 0  XYZ
  end
  begin
     id 2 
     name lfemur
     direction 0.34202 -0.939693 0  
     length 6.83441  
     axis 0 0 20  XYZ
    dof rx ry rz
    limits (-160.0 20.0)
           (-70.0 70.0)
           (-60.0 70.0)
  end
  begin
     id 3 
     name ltibia
     direction 0.34202 -0.939693 0   
     length 7.28749   
     axis 0 0 20   XYZ
    dof rx
    limits (-10.0 170.0)
  end
  begin
     id 4 
     name lfoot
     direction 0.100608 -0.276418 0.955757   
     length 1.52195   
     axis -90 7.62852e-016 20   XYZ
    dof rx rz
    limits (-45.0 90.0)
           (-70.0 20.0)
  end
  begin
     id 5 
     name ltoes
     direction 1.53558e-011 -4.21907e-011 1   
     length 0.770459   
     axis -90 7.62852e-016 20   XYZ
    dof rx
    limits (-90.0 20.0)
  end
  begin
     id 6 
     name rhipjoint
     direction -0.488071 -0.788702 0.373812   
     length 2.04648  
     axis 0 0 0  XYZ 
  end
  begin
     id 7 
     name rfemur
     direction -0.34202 -0.939693 0   
     length 6.92583   
     axis 0 0 -20   XYZ
    dof rx ry rz
    limits (-160.0 20.0)
           (-70.0 70.0)
           (-70.0 60.0)
  end
  begin
     id 8 
     name rtibia
     direction -0.34202 -0.939693 0   
     length 7.41043   
     axis 0 0 -20   XYZ
    dof rx
    limits (-10.0 170.0)
 end
 begin
     id 9 
     name rfoot
     direction -0.0784433 -0.215521 0.973343   
     length 1.67708  
     axis -90 -7.62852e-016 -20   XYZ
    dof rx rz
    limits (-45.0 90.0)
           (-20.0 70.0)
  end
  begin
     id 10 
     name rtoes
     direction -1.53551e-011 -4.21842e-011 1   
     length 0.849787   
     axis -90 -7.62852e-016 -20   XYZ
    dof rx
    limits (-90.0 20.0)
  end
  begin
     id 11 
     name lowerback
     direction -0.0122332 0.997575 -0.0685192   
     length 1.98724   
     axis 0 0 0   XYZ
    dof rx ry rz
    limits (-20.0 45.0)
           (-30.0 30.0)
           (-30.0 30.0)
  end
  begin
     id 12 
     name upperback
     direction 0.0182347 0.999724 -0.0148421   
     length 1.99029   
     axis 0 0 0   XYZ
    dof rx ry rz
    limits (-20.0 45.0)
           (-30.0 30.0)
           (-30.0 30.0)
  end
  begin
     id 13 
     name thorax
     direction 0.0242908 0.99956 0.0170184   
     length 1.99573   
     axis 0 0 0   XYZ
    dof rx ry rz
    limits (-20.0 45.0)
           (-30.0 30.0)
           (-30.0 30.0)
  end
  begin
     id 14 
     name lowerneck
     direction 0.0654488 0.985533 0.156338   
     length 1.4285   
     axis 0 0 0   XYZ
    dof rx ry rz
    limits (-20.0 45.0)
           (-30.0 30.0)
           (-30.0 30.0)
  end
  begin
     id 15 
     name upperneck
     direction -0.02953 0.998556 -0.0448842   
     length 1.44709   
     axis 0 0 0   XYZ
    dof rx ry rz
    limits (-20.0 45.0)
           (-30.0 30.0)
           (-30.0 30.0)
  end
  begin
     id 16
     name head
     direction -0.0155588 0.999386 -0.0314063  
     length 1.44689  
     axis 0 0 0   XYZ
    dof rx ry rz
    limits (-20.0 45.0)
           (-30.0 30.0)
           (-30.0 30.0)
  end
  begin
     id 17 
     name lclavicle
     direction 0.968229 0.236071 -0.0824755  
     length 3.60593  
     axis 0 0 0   XYZ
    dof ry rz
    limits (-20.0 10.0)
           (0.0 20.0)
  end
  begin
     id 18 
     name lhumerus
     direction 1 -4.48968e-011 7.8138e-029   
     length 5.06035   
     axis 180 -30 -90   XYZ
    dof rx ry rz
    limits (-60.0 90.0)
           (-90.0 90.0)
           (-90.0 90.0)
  end
  begin
     id 19
     name lradius
     direction 1 -4.48967e-011 9.02887e-028   
     length 3.1478   
     axis 180 -30 -90   XYZ
    dof rx
    limits (-10.0 170.0)
  end
  begin
     id 20
     name lwrist
     direction 1 -4.48961e-011 7.20928e-028   
     length 1.5739   
     axis -5.52449e-016 90 90   XYZ
    dof ry
    limits (-180.0 0.0)
 end
  begin
     id 21 
     name lhand
     direction 1 -4.48972e-011 1.44186e-027   
     length 0.606747   
     axis -9.20027e-016 90 90   XYZ
    dof rx rz
    limits (-90.0 90.0)
           (-45.0 45.0)
  end
  begin
     id 22 
     name lfingers
     direction 1 -4.48943e-011 2.88371e-027   
     length 0.489175   
     axis -1.84005e-015 90 90   XYZ
    dof rx
    limits (0.0 90.0)
  end
  begin
     id 23
     name lthumb
     direction 0.707107 -6.34917e-011 0.707107   
     length 0.70236   
     axis -90 45 2.85299e-015   XYZ
    dof rx rz
    limits (-45.0 45.0)
           (-45.0 45.0)
  end
  begin
     id 24 
     name rclavicle
     direction -0.978165 0.207816 0.0022268   
     length 3.35425  
     axis 0 0 0   XYZ 
    dof ry rz
    limits (-10.0 20.0)
           (-20.0 0.0)
  end
  begin
     id 25 
     name rhumerus
     direction -1 -4.48964e-011 -4.02159e-027  
     length 5.12273   
     axis 180 30 90   XYZ
    dof rx ry rz
    limits (-90.0 60.0)
           (-90.0 90.0)
           (-90.0 90.0)
  end
  begin
     id 26 
     name rradius
     direction -1 -4.48966e-011 1.62746e-027   
     length 3.422   
     axis 180 30 90   XYZ
    dof rx
    limits (-10.0 170.0)
  end
  begin
     id 27 
     name rwrist
     direction -1 -4.4896e-011 7.20928e-028   
     length 1.711   
     axis -5.52449e-016 -90 -90   XYZ
    dof ry
    limits (-180.0 0.0)
  end
  begin
     id 28
     name rhand
     direction -1 -4.48979e-011 1.44186e-027   
     length 0.704599   
     axis -9.20027e-016 -90 -90   XYZ
    dof rx rz
    limits (-90.0 90.0)
           (-45.0 45.0)
  end
  begin
     id 29
     name rfingers
     direction -1 -4.48962e-011 2.88371e-027   
     length 0.568066   
     axis -1.84005e-015 -90 -90   XYZ
    dof rx
    limits (0.0 90.0)
  end
  begin
     id 30
     name rthumb
     direction -0.707107 -6.34949e-011 0.707107   
     length 0.815633   
     axis -90 -45 -2.85299e-015   XYZ
    dof rx rz
    limits (-45.0 45.0)
           (-45.0 45.0)
  end
:hierarchy
  begin
    root lhipjoint rhipjoint lowerback
    lhipjoint lfemur
    lfemur ltibia
    ltibia lfoot
    lfoot ltoes
    rhipjoint rfemur
    rfemur rtibia
    rtibia rfoot
    rfoot rtoes
    lowerback upperback
    upperback thorax
    thorax lowerneck lclavicle rclavicle
    lowerneck upperneck
    upperneck head
    lclavicle lhumerus
    lhumerus lradius
    lradius lwrist
    lwrist lhand lthumb
    lhand lfingers
    rclavicle rhumerus
    rhumerus rradius
    rradius rwrist
    rwrist rhand rthumb
    rhand rfingers
  end

#!OML:ASF E:\id_vita\Project 1\Capture day 1\Session 1\Male1.ASF
:FULLY-SPECIFIED
:DEGREES
337
root 40.3973 14.3427 0.41938 -72.6141 -88.1647 125.738
lowerback 17.6766 -2.22669 0.159023
upperback 9.41798 -3.53472 -4.27611
thorax -0.0935976 -1.85562 -3.98816
lowerneck -9.3168 3.52819 1.73368
upperneck 41.4576 -1.3596 7.80785
head 16.6202 0.1181 2.78068
rclavicle 0 3.18055e-015
rhumerus 39.4643 15.1426 -78.3575
rradius 36.9123
rwrist 41.9461
rhand -30.8044 30.6104
rfingers 7.12502
rthumb -4.09425 0.670011
lclavicle 0 3.18055e-015
lhumerus 42.5922 -20.9471 58.3762
lradius 36.3123
lwrist -33.9535
lhand -46.1023 87.4794
lfingers 7.12502
lthumb -18.844 243.413
rfemur -46.5763 5.34886 18.1306
rtibia 53.7912
rfoot -32.0429 -18.0028
rtoes -5.4813
lfemur -93.0229 2.95885 -30.0712
ltibia 67.4846
lfoot -32.8067 -0.880616
ltoes -17.7682
338
root 40.4376 14.3128 0.411266 -68.6338 -88.2556 121.692
lowerback 17.71 -2.41352 0.296627
upperback 9.35026 -3.7496 -4.26083
thorax -0.205844 -1.95634 -4.00667
lowerneck -9.31451 3.69946 1.65878
upperneck 41.6782 -1.10244 7.69756
head 16.7225 0.191215 2.7947
rclavicle -4.77083e-014 -2.70347e-014
rhumerus 39.7499 15.5927 -78.1897
rradius 36.8902
rwrist 41.6113
rhand -30.8324 30.6395
rfingers 7.12502
rthumb -4.12126 0.699624
lclavicle -4.77083e-014 -2.70347e-014
lhumerus 42.9455 -20.8345 57.3756
lradius 35.9956
lwrist -32.97
lhand -46.4968 86.2831
lfingers 7.12502
lthumb -19.2234 244.647
rfemur -46.428 5.46965 18.2303
rtibia 53.7424
rfoot -32.951 -18.5303
rtoes -6.04791
lfemur -93.3657 2.95907 -30.0506
ltibia 67.8348
lfoot -32.8256 -0.885189
ltoes -18.2513
339
root 40.4751 14.2838 0.399753 -66.7975 -88.1825 119.804
lowerback 17.7213 -2.56539 0.247534
upperback 9.30653 -3.95087 -4.28431
thorax -0.272286 -2.0563 -3.96449
lowerneck -9.48361 3.90465 1.3946
upperneck 42.0626 -0.891166 7.84138
head 16.9655 0.246362 2.96492
rclavicle 8.5875e-014 5.14852e-014
rhumerus 40.226 16.0831 -77.932
rradius 36.6616
rwrist 41.2925
rhand -30.6878 30.5779
rfingers 7.12502
rthumb -3.98161 0.635364
lclavicle 8.5875e-014 5.14852e-014
lhumerus 43.5033 -20.8501 56.1704
lradius 35.3728
lwrist -31.8619
lhand -46.9092 85.6776
lfingers 7.12502
lthumb -19.62 245.292
rfemur -46.4312 5.56813 18.1745
rtibia 53.7373
rfoot -33.5834 -19.164
rtoes -7.72327
lfemur -93.6505 2.95679 -30.1539
ltibia 68.1749
lfoot -32.9218 -0.931561
ltoes -18.3539
340
root 40.5118 14.2555 0.391714 -66.3876 -88.2436 119.222
lowerback 17.882 -2.67226 0.362673
upperback 9.28396 -4.07558 -4.31126
thorax -0.397071 -2.11481 -4.02696
lowerneck -9.58026 4.01906 1.32014
upperneck 42.2997 -0.735412 7.77744
head 17.113 0.285764 2.98903
rclavicle 4.6118e-014 1.35174e-014
rhumerus 40.6797 16.4143 -77.7333
rradius 36.4075
rwrist 40.957
rhand -30.6033 30.559
rfingers 7.12502
rthumb -3.90003 0.614923
lclavicle 4.6118e-014 1.35174e-014
lhumerus 43.7867 -20.745 55.4029
lradius 35.1506
lwrist -31.2073
lhand -47.1219 85.2563
lfingers 7.12502
lthumb -19.8244 245.735
rfemur -46.3471 5.58227 18.2922
rtibia 53.7555
rfoot -34.3171 -19.8296
rtoes -9.65021
lfemur -93.8146 3.04373 -30.1125
ltibia 68.5528
lfoot -33.0705 -0.904234
ltoes -18.401
341
root 40.5505 14.2298 0.384625 -66.6333 -88.3786 119.221
lowerback 18.1608 -2.76599 0.526487
upperback 9.25241 -4.17809 -4.3347
thorax -0.593621 -2.16207 -4.11109
lowerneck -9.59004 4.11057 1.28179
upperneck 42.4482 -0.598827 7.70493
head 17.1899 0.320903 2.99223
rclavicle 1.11319e-014 2.84262e-014
rhumerus 40.9226 16.6588 -77.7022
rradius 36.3651
rwrist 40.6082
rhand -30.6329 30.541
rfingers 7.12502
rthumb -3.92866 0.597514
lclavicle 1.11319e-014 2.84262e-014
lhumerus 43.4236 -20.2946 55.3624
lradius 35.6672
lwrist -31.3608
lhand -46.8588 85.2294
lfingers 7.12502
lthumb -19.5715 245.736
rfemur -46.1279 5.62034 18.4859
rtibia 53.8008
rfoot -34.8382 -20.0271
rtoes -9.60404
lfemur -93.9713 3.16797 -29.9739
ltibia 68.9416
lfoot -33.3908 -1.42607
ltoes -16.7779
342
root 40.5849 14.2109 0.377848 -65.3741 -88.5058 117.783
lowerback 18.3029 -2.82958 0.682158
upperback 9.2328 -4.23718 -4.32442
thorax -0.701091 -2.18764 -4.16949
lowerneck -9.60259 4.12208 1.19758
upperneck 42.5528 -0.557342 7.64395
head 17.2478 0.314733 2.99227
rclavicle -1.11319e-014 -2.50469e-014
rhumerus 41.1826 16.8372 -77.5098
rradius 36.3309
rwrist 40.2531
rhand -30.6968 30.5972
rfingers 7.12502
rthumb -3.99037 0.654834
lclavicle -1.11319e-014 -2.50469e-014
lhumerus 42.7395 -19.7276 55.6907
lradius 36.7804
lwrist -31.8727
lhand -46.5324 84.0274
lfingers 7.12502
lthumb -19.2577 246.906
rfemur -46.0126 5.57913 18.7269
rtibia 53.8858
rfoot -35.1502 -20.5348
rtoes -9.73994
lfemur -94.1971 3.24953 -29.7978
ltibia 69.3002
lfoot -34.1586 -2.94845
ltoes -11.6098
343
root 40.618 14.1905 0.374611 -60.0429 -88.562 112.389
lowerback 18.2588 -2.91114 0.864616
upperback 9.21363 -4.30859 -4.2955
thorax -0.714337 -2.21684 -4.2294
lowerneck -9.63911 4.12409 1.18027
upperneck 42.7325 -0.537968 7.51511
head 17.3591 0.302295 2.95068
rclavicle -5.56597e-014 -3.06128e-014
rhumerus 41.5354 16.9661 -77.2248
rradius 36.185
rwrist 40.0956
rhand -30.659 30.6907
rfingers 7.12502
rthumb -3.95381 0.747666
lclavicle -5.56597e-014 -3.06128e-014
lhumerus 43.0679 -19.6749 55.1904
lradius 36.7137
lwrist -31.5418
lhand -46.3562 84.4125
lfingers 7.12502
lthumb -19.0883 246.504
rfemur -46.1253 5.30054 18.9605
rtibia 54.0363
rfoot -35.2393 -21.4016
rtoes -12.2854
lfemur -94.4886 3.17278 -29.7168
ltibia 69.6215
lfoot -34.1436 -3.25486
ltoes -10.9219
